<?xml version="1.0" encoding="UTF-8"?>
<svg xmlns="http://www.w3.org/2000/svg" xmlns:xlink="http://www.w3.org/1999/xlink" width="15px" height="15px" viewBox="0 0 15 15" version="1.1">
<g id="surface1">
<path style=" stroke:none;fill-rule:nonzero;fill:rgb(83.92157%,20%,38.431373%);fill-opacity:1;" d="M 14.25 0 L 0.75 0 C 0.332031 0 0 0.332031 0 0.75 L 0 14.25 C 0 14.667969 0.332031 15 0.75 15 L 14.25 15 C 14.667969 15 15 14.667969 15 14.25 L 15 0.75 C 15 0.332031 14.667969 0 14.25 0 "/>
<path style=" stroke:none;fill-rule:nonzero;fill:rgb(100%,100%,100%);fill-opacity:1;" d="M 4.167969 4.167969 L 5.5 4.167969 L 5.5 10.832031 L 4.167969 10.832031 Z M 4.167969 4.167969 "/>
<path style=" stroke:none;fill-rule:nonzero;fill:rgb(100%,100%,100%);fill-opacity:1;" d="M 6.835938 9.5 L 10.832031 9.5 L 10.832031 10.832031 L 6.835938 10.832031 Z M 6.835938 9.5 "/>
<path style=" stroke:none;fill-rule:nonzero;fill:rgb(100%,100%,100%);fill-opacity:1;" d="M 6.835938 6.835938 L 10.832031 6.835938 L 10.832031 8.164062 L 6.835938 8.164062 Z M 6.835938 6.835938 "/>
<path style=" stroke:none;fill-rule:nonzero;fill:rgb(100%,100%,100%);fill-opacity:1;" d="M 6.835938 4.167969 L 10.832031 4.167969 L 10.832031 5.5 L 6.835938 5.5 Z M 6.835938 4.167969 "/>
</g>
</svg>
