<?xml version="1.0" encoding="UTF-8"?>
<svg xmlns="http://www.w3.org/2000/svg" xmlns:xlink="http://www.w3.org/1999/xlink" width="27px" height="14px" viewBox="0 0 26 14" version="1.1">
<g id="surface1">
<path style=" stroke:none;fill-rule:evenodd;fill:rgb(91.764706%,29.411766%,44.313726%);fill-opacity:1;" d="M 23.261719 5.601562 C 21.988281 5.601562 20.917969 4.707031 20.613281 3.5 L 17.476562 3.5 C 16.808594 3.5 16.234375 3.996094 16.125 4.667969 L 16.011719 5.359375 C 15.90625 6.015625 15.582031 6.585938 15.125 7 C 15.582031 7.414062 15.90625 7.984375 16.011719 8.640625 L 16.125 9.332031 C 16.234375 10.003906 16.808594 10.5 17.476562 10.5 L 17.875 10.5 C 18.179688 9.292969 19.25 8.398438 20.527344 8.398438 C 22.039062 8.398438 23.261719 9.652344 23.261719 11.199219 C 23.261719 12.746094 22.039062 14 20.527344 14 C 19.25 14 18.179688 13.109375 17.875 11.898438 L 17.476562 11.898438 C 16.136719 11.898438 14.996094 10.910156 14.777344 9.558594 L 14.664062 8.871094 C 14.554688 8.195312 13.984375 7.699219 13.3125 7.699219 L 12.230469 7.699219 C 11.925781 8.90625 10.855469 9.800781 9.578125 9.800781 C 8.304688 9.800781 7.230469 8.90625 6.929688 7.699219 L 5.386719 7.699219 C 5.082031 8.90625 4.011719 9.800781 2.738281 9.800781 C 1.226562 9.800781 0 8.546875 0 7 C 0 5.453125 1.226562 4.199219 2.738281 4.199219 C 4.011719 4.199219 5.082031 5.09375 5.386719 6.300781 L 6.929688 6.300781 C 7.230469 5.09375 8.304688 4.199219 9.578125 4.199219 C 10.855469 4.199219 11.925781 5.09375 12.230469 6.300781 L 13.3125 6.300781 C 13.984375 6.300781 14.554688 5.804688 14.664062 5.128906 L 14.777344 4.441406 C 14.996094 3.089844 16.136719 2.101562 17.476562 2.101562 L 20.613281 2.101562 C 20.917969 0.890625 21.988281 0 23.261719 0 C 24.773438 0 26 1.253906 26 2.800781 C 26 4.347656 24.773438 5.601562 23.261719 5.601562 Z M 23.261719 4.199219 C 24.019531 4.199219 24.632812 3.574219 24.632812 2.800781 C 24.632812 2.027344 24.019531 1.398438 23.261719 1.398438 C 22.507812 1.398438 21.894531 2.027344 21.894531 2.800781 C 21.894531 3.574219 22.507812 4.199219 23.261719 4.199219 Z M 2.738281 8.398438 C 3.492188 8.398438 4.105469 7.773438 4.105469 7 C 4.105469 6.226562 3.492188 5.601562 2.738281 5.601562 C 1.980469 5.601562 1.367188 6.226562 1.367188 7 C 1.367188 7.773438 1.980469 8.398438 2.738281 8.398438 Z M 10.949219 7 C 10.949219 7.773438 10.335938 8.398438 9.578125 8.398438 C 8.824219 8.398438 8.210938 7.773438 8.210938 7 C 8.210938 6.226562 8.824219 5.601562 9.578125 5.601562 C 10.335938 5.601562 10.949219 6.226562 10.949219 7 Z M 21.894531 11.199219 C 21.894531 11.972656 21.28125 12.601562 20.527344 12.601562 C 19.769531 12.601562 19.15625 11.972656 19.15625 11.199219 C 19.15625 10.425781 19.769531 9.800781 20.527344 9.800781 C 21.28125 9.800781 21.894531 10.425781 21.894531 11.199219 Z M 21.894531 11.199219 "/>
</g>
</svg>
