<?xml version="1.0" encoding="UTF-8"?>
<svg xmlns="http://www.w3.org/2000/svg" xmlns:xlink="http://www.w3.org/1999/xlink" width="35px" height="31px" viewBox="0 0 35 31" version="1.1">
<g id="surface1">
<path style=" stroke:none;fill-rule:evenodd;fill:rgb(91.764706%,29.411766%,44.313726%);fill-opacity:1;" d="M 35 10.851562 C 35 12.5625 33.394531 13.949219 31.410156 13.949219 C 29.738281 13.949219 28.332031 12.960938 27.933594 11.625 L 22.921875 11.625 C 22.042969 11.625 21.296875 12.171875 21.152344 12.921875 L 21.003906 13.683594 C 20.867188 14.390625 20.453125 15.035156 19.839844 15.5 C 20.4375 15.957031 20.863281 16.589844 21.003906 17.316406 L 21.152344 18.078125 C 21.304688 18.835938 22.054688 19.382812 22.921875 19.375 L 24.34375 19.375 C 24.742188 18.039062 26.148438 17.050781 27.824219 17.050781 C 29.804688 17.050781 31.410156 18.4375 31.410156 20.148438 C 31.410156 21.859375 29.804688 23.25 27.824219 23.25 C 26.148438 23.25 24.746094 22.261719 24.34375 20.925781 L 22.921875 20.925781 C 21.167969 20.925781 19.671875 19.828125 19.382812 18.335938 L 19.234375 17.570312 C 19.082031 16.816406 18.332031 16.269531 17.464844 16.273438 L 15.996094 16.273438 C 15.550781 17.546875 14.179688 18.46875 12.5625 18.46875 C 10.941406 18.46875 9.574219 17.546875 9.128906 16.273438 L 7.023438 16.273438 C 6.574219 17.546875 5.207031 18.46875 3.589844 18.46875 C 1.605469 18.46875 0 17.082031 0 15.371094 C 0 13.660156 1.605469 12.269531 3.589844 12.269531 C 5.316406 12.269531 6.757812 13.324219 7.101562 14.726562 L 9.050781 14.726562 C 9.398438 13.324219 10.835938 12.269531 12.5625 12.269531 C 14.289062 12.269531 15.730469 13.324219 16.078125 14.726562 L 17.464844 14.726562 C 18.339844 14.726562 19.089844 14.175781 19.230469 13.429688 L 19.382812 12.664062 C 19.667969 11.171875 21.167969 10.074219 22.921875 10.074219 L 27.933594 10.074219 C 28.332031 8.738281 29.738281 7.75 31.410156 7.75 C 33.394531 7.75 35 9.140625 35 10.851562 Z M 33.207031 10.851562 C 33.207031 11.707031 32.402344 12.398438 31.410156 12.398438 C 30.417969 12.398438 29.617188 11.707031 29.617188 10.851562 C 29.617188 9.992188 30.417969 9.300781 31.410156 9.300781 C 32.402344 9.300781 33.203125 9.992188 33.203125 10.851562 Z M 3.589844 16.921875 C 4.582031 16.921875 5.382812 16.226562 5.382812 15.371094 C 5.382812 14.515625 4.582031 13.820312 3.589844 13.820312 C 2.597656 13.820312 1.792969 14.515625 1.792969 15.371094 C 1.792969 16.226562 2.597656 16.921875 3.585938 16.921875 Z M 12.5625 16.921875 C 13.554688 16.921875 14.355469 16.226562 14.355469 15.371094 C 14.355469 14.515625 13.554688 13.820312 12.5625 13.820312 C 11.570312 13.820312 10.769531 14.515625 10.769531 15.371094 C 10.769531 16.226562 11.570312 16.921875 12.5625 16.921875 Z M 27.820312 21.699219 C 28.8125 21.699219 29.613281 21.007812 29.613281 20.148438 C 29.613281 19.292969 28.8125 18.601562 27.820312 18.601562 C 26.828125 18.601562 26.027344 19.292969 26.027344 20.148438 C 26.027344 21.007812 26.828125 21.699219 27.820312 21.699219 Z M 27.820312 21.699219 "/>
</g>
</svg>
