<?xml version="1.0" encoding="UTF-8"?>
<svg xmlns="http://www.w3.org/2000/svg" xmlns:xlink="http://www.w3.org/1999/xlink" width="39px" height="31px" viewBox="0 0 39 31" version="1.1">
<g id="surface1">
<path style=" stroke:none;fill-rule:nonzero;fill:rgb(38.039216%,85.490197%,98.431373%);fill-opacity:1;" d="M 32.261719 14.15625 C 32.261719 12.46875 30.125 10.867188 26.851562 9.875 C 27.605469 6.566406 27.273438 3.9375 25.792969 3.09375 C 25.453125 2.894531 25.050781 2.800781 24.617188 2.800781 L 24.617188 3.960938 C 24.859375 3.960938 25.050781 4.007812 25.214844 4.097656 C 25.929688 4.503906 26.238281 6.046875 25.996094 8.03125 C 25.9375 8.523438 25.84375 9.035156 25.730469 9.5625 C 24.699219 9.3125 23.578125 9.121094 22.398438 8.996094 C 21.691406 8.03125 20.957031 7.160156 20.214844 6.394531 C 21.925781 4.820312 23.53125 3.957031 24.621094 3.957031 L 24.621094 2.796875 C 23.179688 2.796875 21.292969 3.816406 19.382812 5.585938 C 17.472656 3.828125 15.585938 2.816406 14.140625 2.816406 L 14.140625 3.976562 C 15.226562 3.976562 16.835938 4.835938 18.546875 6.398438 C 17.8125 7.164062 17.078125 8.03125 16.382812 8.996094 C 15.195312 9.121094 14.074219 9.3125 13.046875 9.566406 C 12.925781 9.046875 12.835938 8.542969 12.773438 8.058594 C 12.527344 6.074219 12.828125 4.527344 13.539062 4.117188 C 13.695312 4.023438 13.898438 3.984375 14.140625 3.984375 L 14.140625 2.824219 C 13.699219 2.824219 13.300781 2.917969 12.957031 3.113281 C 11.480469 3.957031 11.152344 6.582031 11.910156 9.878906 C 8.648438 10.875 6.523438 12.472656 6.523438 14.15625 C 6.523438 15.847656 8.660156 17.449219 11.933594 18.441406 C 11.175781 21.75 11.511719 24.378906 12.992188 25.222656 C 13.332031 25.417969 13.730469 25.511719 14.171875 25.511719 C 15.617188 25.511719 17.503906 24.492188 19.414062 22.726562 C 21.324219 24.484375 23.210938 25.492188 24.652344 25.492188 C 25.09375 25.492188 25.492188 25.398438 25.839844 25.199219 C 27.3125 24.359375 27.644531 21.734375 26.882812 18.4375 C 30.136719 17.441406 32.261719 15.84375 32.261719 14.15625 Z M 25.429688 10.691406 C 25.234375 11.359375 24.996094 12.050781 24.722656 12.742188 C 24.507812 12.328125 24.28125 11.910156 24.035156 11.496094 C 23.792969 11.078125 23.535156 10.675781 23.28125 10.277344 C 24.023438 10.386719 24.742188 10.523438 25.429688 10.691406 Z M 23.027344 16.226562 C 22.617188 16.929688 22.199219 17.59375 21.761719 18.210938 C 20.980469 18.28125 20.191406 18.316406 19.390625 18.316406 C 18.601562 18.316406 17.808594 18.28125 17.03125 18.21875 C 16.597656 17.597656 16.171875 16.9375 15.761719 16.242188 C 15.363281 15.5625 15 14.871094 14.671875 14.171875 C 14.996094 13.476562 15.363281 12.78125 15.757812 12.097656 C 16.167969 11.398438 16.585938 10.730469 17.019531 10.113281 C 17.804688 10.042969 18.59375 10.007812 19.390625 10.007812 C 20.183594 10.007812 20.976562 10.042969 21.753906 10.105469 C 22.1875 10.726562 22.613281 11.386719 23.023438 12.082031 C 23.421875 12.765625 23.78125 13.457031 24.113281 14.152344 C 23.78125 14.847656 23.421875 15.546875 23.027344 16.226562 Z M 24.722656 15.550781 C 24.996094 16.226562 25.238281 16.917969 25.445312 17.621094 C 24.757812 17.785156 24.035156 17.925781 23.285156 18.035156 C 23.542969 17.636719 23.796875 17.226562 24.039062 16.804688 C 24.28125 16.386719 24.507812 15.964844 24.722656 15.550781 Z M 19.402344 21.097656 C 18.914062 20.597656 18.425781 20.042969 17.945312 19.433594 C 18.417969 19.457031 18.898438 19.472656 19.386719 19.472656 C 19.878906 19.472656 20.367188 19.460938 20.84375 19.433594 C 20.394531 20.015625 19.914062 20.570312 19.402344 21.097656 Z M 15.5 18.035156 C 14.753906 17.925781 14.035156 17.792969 13.347656 17.625 C 13.542969 16.953125 13.785156 16.261719 14.058594 15.570312 C 14.273438 15.988281 14.5 16.402344 14.746094 16.820312 C 14.992188 17.234375 15.242188 17.640625 15.5 18.035156 Z M 19.375 7.214844 C 19.863281 7.714844 20.351562 8.273438 20.835938 8.878906 C 20.363281 8.859375 19.878906 8.84375 19.390625 8.84375 C 18.898438 8.84375 18.410156 8.855469 17.933594 8.878906 C 18.382812 8.300781 18.867188 7.746094 19.375 7.214844 Z M 15.496094 10.277344 C 15.238281 10.679688 14.980469 11.089844 14.738281 11.511719 C 14.5 11.925781 14.273438 12.34375 14.058594 12.757812 C 13.78125 12.082031 13.539062 11.390625 13.332031 10.691406 C 14.019531 10.527344 14.746094 10.386719 15.496094 10.277344 Z M 10.746094 16.789062 C 8.890625 16.003906 7.6875 14.972656 7.6875 14.15625 C 7.6875 13.339844 8.890625 12.304688 10.746094 11.527344 C 11.199219 11.335938 11.691406 11.164062 12.199219 11 C 12.5 12.019531 12.894531 13.082031 13.378906 14.167969 C 12.898438 15.25 12.511719 16.304688 12.214844 17.320312 C 11.695312 17.15625 11.203125 16.980469 10.746094 16.789062 Z M 13.570312 24.21875 C 12.855469 23.8125 12.546875 22.269531 12.789062 20.28125 C 12.847656 19.792969 12.941406 19.277344 13.054688 18.753906 C 14.082031 19.003906 15.207031 19.195312 16.386719 19.320312 C 17.09375 20.28125 17.828125 21.15625 18.570312 21.917969 C 16.859375 23.496094 15.253906 24.359375 14.164062 24.359375 C 13.925781 24.351562 13.726562 24.304688 13.570312 24.21875 Z M 26.011719 20.257812 C 26.257812 22.242188 25.953125 23.785156 25.246094 24.195312 C 25.089844 24.289062 24.882812 24.332031 24.644531 24.332031 C 23.558594 24.332031 21.945312 23.472656 20.238281 21.910156 C 20.972656 21.144531 21.707031 20.277344 22.402344 19.316406 C 23.589844 19.191406 24.710938 18.996094 25.738281 18.742188 C 25.859375 19.269531 25.953125 19.773438 26.011719 20.257812 Z M 28.03125 16.789062 C 27.582031 16.980469 27.085938 17.152344 26.578125 17.3125 C 26.28125 16.292969 25.886719 15.234375 25.398438 14.148438 C 25.882812 13.066406 26.269531 12.011719 26.5625 10.996094 C 27.082031 11.15625 27.574219 11.335938 28.039062 11.527344 C 29.894531 12.3125 31.09375 13.339844 31.09375 14.15625 C 31.089844 14.972656 29.890625 16.007812 28.03125 16.789062 Z M 28.03125 16.789062 "/>
<path style=" stroke:none;fill-rule:nonzero;fill:rgb(38.039216%,85.490197%,98.431373%);fill-opacity:1;" d="M 19.386719 16.535156 C 20.710938 16.535156 21.785156 15.46875 21.785156 14.15625 C 21.785156 12.84375 20.710938 11.78125 19.386719 11.78125 C 18.0625 11.78125 16.988281 12.84375 16.988281 14.15625 C 16.988281 15.46875 18.0625 16.535156 19.386719 16.535156 Z M 7.691406 29.601562 L 6.902344 29.601562 L 6.902344 30.953125 L 6.457031 30.953125 L 6.457031 27.613281 L 7.570312 27.613281 C 7.949219 27.613281 8.242188 27.699219 8.445312 27.871094 C 8.648438 28.042969 8.753906 28.292969 8.753906 28.621094 C 8.753906 28.828125 8.695312 29.007812 8.582031 29.164062 C 8.46875 29.316406 8.3125 29.433594 8.109375 29.507812 L 8.902344 30.925781 L 8.902344 30.953125 L 8.425781 30.953125 Z M 6.902344 29.242188 L 7.585938 29.242188 C 7.804688 29.242188 7.980469 29.1875 8.109375 29.074219 C 8.242188 28.960938 8.304688 28.808594 8.304688 28.621094 C 8.304688 28.414062 8.242188 28.253906 8.117188 28.144531 C 7.996094 28.035156 7.816406 27.980469 7.582031 27.976562 L 6.902344 27.976562 Z M 10.347656 31 C 10.011719 31 9.734375 30.890625 9.519531 30.667969 C 9.308594 30.449219 9.203125 30.152344 9.203125 29.78125 L 9.203125 29.703125 C 9.203125 29.457031 9.25 29.238281 9.34375 29.046875 C 9.4375 28.851562 9.570312 28.699219 9.742188 28.59375 C 9.914062 28.480469 10.097656 28.425781 10.296875 28.425781 C 10.621094 28.425781 10.875 28.53125 11.054688 28.746094 C 11.234375 28.957031 11.324219 29.261719 11.324219 29.660156 L 11.324219 29.835938 L 9.628906 29.835938 C 9.636719 30.078125 9.707031 30.277344 9.84375 30.429688 C 9.984375 30.578125 10.160156 30.652344 10.371094 30.652344 C 10.523438 30.652344 10.652344 30.625 10.757812 30.5625 C 10.863281 30.5 10.953125 30.417969 11.03125 30.320312 L 11.292969 30.519531 C 11.082031 30.839844 10.769531 31 10.347656 31 Z M 10.296875 28.777344 C 10.125 28.777344 9.980469 28.839844 9.859375 28.964844 C 9.742188 29.085938 9.671875 29.261719 9.644531 29.484375 L 10.898438 29.484375 L 10.898438 29.453125 C 10.886719 29.238281 10.828125 29.070312 10.722656 28.953125 C 10.617188 28.835938 10.476562 28.777344 10.296875 28.777344 Z M 13.371094 30.953125 C 13.34375 30.90625 13.324219 30.816406 13.308594 30.691406 C 13.109375 30.898438 12.871094 31 12.597656 31 C 12.347656 31 12.148438 30.929688 11.988281 30.792969 C 11.832031 30.65625 11.75 30.480469 11.75 30.265625 C 11.75 30.007812 11.851562 29.808594 12.046875 29.664062 C 12.246094 29.519531 12.527344 29.449219 12.886719 29.449219 L 13.300781 29.449219 L 13.300781 29.253906 C 13.300781 29.105469 13.257812 28.988281 13.167969 28.902344 C 13.078125 28.8125 12.945312 28.769531 12.773438 28.769531 C 12.621094 28.769531 12.492188 28.808594 12.386719 28.882812 C 12.285156 28.960938 12.234375 29.050781 12.234375 29.160156 L 11.800781 29.160156 C 11.800781 29.035156 11.847656 28.917969 11.933594 28.804688 C 12.023438 28.6875 12.144531 28.59375 12.296875 28.527344 C 12.449219 28.460938 12.617188 28.425781 12.796875 28.425781 C 13.085938 28.425781 13.3125 28.5 13.476562 28.640625 C 13.640625 28.785156 13.722656 28.980469 13.730469 29.230469 L 13.730469 30.375 C 13.730469 30.601562 13.757812 30.78125 13.816406 30.917969 L 13.816406 30.953125 Z M 12.660156 30.628906 C 12.792969 30.628906 12.921875 30.597656 13.039062 30.527344 C 13.160156 30.457031 13.25 30.371094 13.300781 30.257812 L 13.300781 29.75 L 12.964844 29.75 C 12.441406 29.75 12.179688 29.902344 12.179688 30.207031 C 12.179688 30.339844 12.226562 30.445312 12.3125 30.519531 C 12.402344 30.59375 12.519531 30.628906 12.660156 30.628906 Z M 15.40625 30.652344 C 15.558594 30.652344 15.691406 30.609375 15.804688 30.515625 C 15.921875 30.425781 15.984375 30.308594 15.996094 30.171875 L 16.402344 30.171875 C 16.394531 30.3125 16.34375 30.449219 16.253906 30.578125 C 16.160156 30.707031 16.039062 30.808594 15.886719 30.886719 C 15.734375 30.960938 15.574219 31 15.40625 31 C 15.066406 31 14.792969 30.886719 14.589844 30.664062 C 14.390625 30.4375 14.289062 30.128906 14.289062 29.734375 L 14.289062 29.664062 C 14.289062 29.421875 14.335938 29.207031 14.425781 29.019531 C 14.515625 28.832031 14.640625 28.6875 14.808594 28.582031 C 14.976562 28.480469 15.175781 28.425781 15.402344 28.425781 C 15.683594 28.425781 15.917969 28.511719 16.101562 28.675781 C 16.289062 28.84375 16.386719 29.058594 16.402344 29.324219 L 15.996094 29.324219 C 15.984375 29.164062 15.921875 29.035156 15.808594 28.929688 C 15.699219 28.828125 15.566406 28.777344 15.402344 28.777344 C 15.1875 28.777344 15.015625 28.851562 14.894531 29.007812 C 14.777344 29.164062 14.71875 29.386719 14.71875 29.679688 L 14.71875 29.761719 C 14.71875 30.046875 14.777344 30.265625 14.894531 30.421875 C 15.015625 30.578125 15.183594 30.652344 15.40625 30.652344 Z M 17.460938 27.871094 L 17.460938 28.472656 L 17.929688 28.472656 L 17.929688 28.800781 L 17.460938 28.800781 L 17.460938 30.339844 C 17.460938 30.4375 17.484375 30.515625 17.523438 30.5625 C 17.566406 30.613281 17.636719 30.636719 17.738281 30.636719 C 17.789062 30.636719 17.855469 30.628906 17.941406 30.609375 L 17.941406 30.953125 C 17.828125 30.984375 17.71875 31 17.613281 31 C 17.421875 31 17.277344 30.941406 17.179688 30.828125 C 17.082031 30.714844 17.035156 30.550781 17.035156 30.339844 L 17.035156 28.800781 L 16.578125 28.800781 L 16.578125 28.472656 L 17.035156 28.472656 L 17.035156 27.871094 Z M 22.265625 30.953125 L 21.816406 30.953125 L 20.121094 28.382812 L 20.121094 30.953125 L 19.675781 30.953125 L 19.675781 27.613281 L 20.121094 27.613281 L 21.820312 30.199219 L 21.820312 27.613281 L 22.265625 27.613281 Z M 24.53125 30.953125 C 24.507812 30.90625 24.488281 30.816406 24.472656 30.691406 C 24.273438 30.898438 24.035156 31 23.757812 31 C 23.511719 31 23.308594 30.929688 23.148438 30.792969 C 22.992188 30.65625 22.914062 30.480469 22.914062 30.265625 C 22.914062 30.007812 23.011719 29.808594 23.210938 29.664062 C 23.410156 29.519531 23.6875 29.449219 24.046875 29.449219 L 24.464844 29.449219 L 24.464844 29.253906 C 24.464844 29.105469 24.417969 28.988281 24.332031 28.902344 C 24.242188 28.8125 24.109375 28.769531 23.933594 28.769531 C 23.78125 28.769531 23.652344 28.808594 23.550781 28.882812 C 23.445312 28.960938 23.394531 29.050781 23.394531 29.160156 L 22.964844 29.160156 C 22.964844 29.035156 23.007812 28.917969 23.097656 28.804688 C 23.1875 28.6875 23.308594 28.59375 23.457031 28.527344 C 23.609375 28.460938 23.777344 28.425781 23.960938 28.425781 C 24.25 28.425781 24.472656 28.5 24.636719 28.640625 C 24.800781 28.785156 24.886719 28.980469 24.894531 29.230469 L 24.894531 30.375 C 24.894531 30.601562 24.921875 30.78125 24.980469 30.917969 L 24.980469 30.953125 Z M 23.820312 30.628906 C 23.957031 30.628906 24.082031 30.597656 24.203125 30.527344 C 24.324219 30.457031 24.410156 30.371094 24.464844 30.257812 L 24.464844 29.75 L 24.128906 29.75 C 23.605469 29.75 23.34375 29.902344 23.34375 30.207031 C 23.34375 30.339844 23.386719 30.445312 23.476562 30.519531 C 23.566406 30.59375 23.679688 30.628906 23.820312 30.628906 Z M 26.144531 27.871094 L 26.144531 28.472656 L 26.613281 28.472656 L 26.613281 28.800781 L 26.144531 28.800781 L 26.144531 30.339844 C 26.144531 30.4375 26.164062 30.515625 26.207031 30.5625 C 26.25 30.613281 26.320312 30.636719 26.417969 30.636719 C 26.46875 30.636719 26.535156 30.628906 26.625 30.609375 L 26.625 30.953125 C 26.511719 30.984375 26.402344 31 26.292969 31 C 26.105469 31 25.960938 30.941406 25.863281 30.828125 C 25.765625 30.714844 25.714844 30.550781 25.714844 30.339844 L 25.714844 28.800781 L 25.261719 28.800781 L 25.261719 28.472656 L 25.714844 28.472656 L 25.714844 27.871094 Z M 27.578125 30.953125 L 27.152344 30.953125 L 27.152344 28.472656 L 27.578125 28.472656 Z M 27.117188 27.8125 C 27.117188 27.746094 27.136719 27.6875 27.179688 27.640625 C 27.222656 27.59375 27.285156 27.570312 27.367188 27.570312 C 27.453125 27.570312 27.515625 27.59375 27.558594 27.640625 C 27.601562 27.6875 27.621094 27.746094 27.621094 27.8125 C 27.621094 27.882812 27.601562 27.941406 27.558594 27.988281 C 27.515625 28.03125 27.453125 28.054688 27.367188 28.054688 C 27.285156 28.054688 27.222656 28.03125 27.179688 27.988281 C 27.136719 27.941406 27.117188 27.882812 27.117188 27.8125 Z M 29.09375 30.378906 L 29.710938 28.472656 L 30.148438 28.472656 L 29.253906 30.953125 L 28.925781 30.953125 L 28.019531 28.472656 L 28.457031 28.472656 Z M 31.566406 31 C 31.230469 31 30.953125 30.890625 30.738281 30.667969 C 30.527344 30.449219 30.421875 30.152344 30.421875 29.78125 L 30.421875 29.703125 C 30.421875 29.457031 30.46875 29.238281 30.5625 29.046875 C 30.65625 28.851562 30.789062 28.699219 30.960938 28.59375 C 31.132812 28.480469 31.316406 28.425781 31.515625 28.425781 C 31.839844 28.425781 32.09375 28.53125 32.273438 28.746094 C 32.453125 28.957031 32.542969 29.261719 32.542969 29.660156 L 32.542969 29.835938 L 30.847656 29.835938 C 30.855469 30.078125 30.925781 30.277344 31.0625 30.429688 C 31.203125 30.578125 31.378906 30.652344 31.589844 30.652344 C 31.742188 30.652344 31.871094 30.625 31.976562 30.5625 C 32.082031 30.5 32.171875 30.417969 32.25 30.320312 L 32.511719 30.519531 C 32.300781 30.839844 31.988281 31 31.566406 31 Z M 31.515625 28.777344 C 31.34375 28.777344 31.195312 28.839844 31.082031 28.964844 C 30.960938 29.085938 30.890625 29.261719 30.863281 29.484375 L 32.117188 29.484375 L 32.117188 29.453125 C 32.105469 29.238281 32.046875 29.070312 31.941406 28.953125 C 31.835938 28.835938 31.695312 28.777344 31.515625 28.777344 Z M 31.515625 28.777344 "/>
</g>
</svg>
